<?xml version="1.0" encoding="UTF-8" standalone="no"?>
<!-- Created with Inkscape (http://www.inkscape.org/) -->

<svg
   xmlns:dc="http://purl.org/dc/elements/1.1/"
   xmlns:cc="http://creativecommons.org/ns#"
   xmlns:rdf="http://www.w3.org/1999/02/22-rdf-syntax-ns#"
   xmlns:svg="http://www.w3.org/2000/svg"
   xmlns="http://www.w3.org/2000/svg"
   xmlns:sodipodi="http://sodipodi.sourceforge.net/DTD/sodipodi-0.dtd"
   xmlns:inkscape="http://www.inkscape.org/namespaces/inkscape"
   width="74.208534mm"
   height="53.865784mm"
   viewBox="0 0 74.208534 53.865784"
   version="1.1"
   id="svg2702"
   inkscape:version="0.92.3 (2405546, 2018-03-11)"
   sodipodi:docname="Tractor.svg">
  <title
     id="title3495">Tractor</title>
  <defs
     id="defs2696">
    <mask
       maskUnits="userSpaceOnUse"
       x="0"
       y="0"
       width="1"
       height="1"
       id="mask36104">
      <g
         id="g36130">
        <g
           clip-path="url(#clipPath36066)"
           id="g36128">
          <g
             id="g36126">
            <g
               id="g36106" />
            <g
               id="g36124">
              <g
                 clip-path="url(#clipPath36070)"
                 id="g36122">
                <g
                   id="g36120">
                  <g
                     clip-path="url(#clipPath36074)"
                     id="g36118">
                    <g
                       id="g36116">
                      <g
                         id="g36108" />
                      <g
                         mask="url(#mask36084)"
                         id="g36114">
                        <g
                           id="g36112">
                          <path
                             d="m 280.395,364.731 c -0.309,0.214 -0.631,0.412 -0.961,0.597 l -1.139,37.89 34.268,1.771 1.142,-64.739 -15.277,0.199 c -3.064,9.247 -9.069,18.019 -18.033,24.282"
                             style="fill:url(#linearGradient36102);stroke:none"
                             id="path36110"
                             inkscape:connector-curvature="0" />
                        </g>
                      </g>
                    </g>
                  </g>
                </g>
              </g>
            </g>
          </g>
        </g>
      </g>
    </mask>
    <clipPath
       clipPathUnits="userSpaceOnUse"
       id="clipPath36066">
      <path
         d="m 278.295,404.989 h 35.41 V 340.25 h -35.41 z"
         id="path36064"
         inkscape:connector-curvature="0" />
    </clipPath>
    <clipPath
       clipPathUnits="userSpaceOnUse"
       id="clipPath36070">
      <path
         d="m 278.295,404.989 h 35.41 V 340.25 h -35.41 z"
         id="path36068"
         inkscape:connector-curvature="0" />
    </clipPath>
    <clipPath
       clipPathUnits="userSpaceOnUse"
       id="clipPath36074">
      <path
         d="m 280.395,364.731 c -0.309,0.214 -0.631,0.412 -0.961,0.597 l -1.139,37.89 34.268,1.771 1.142,-64.739 -15.277,0.199 c -3.064,9.247 -9.069,18.019 -18.033,24.282"
         id="path36072"
         inkscape:connector-curvature="0" />
    </clipPath>
    <mask
       maskUnits="userSpaceOnUse"
       x="0"
       y="0"
       width="1"
       height="1"
       id="mask36084">
      <g
         id="g36096">
        <g
           clip-path="url(#clipPath36078)"
           id="g36094">
          <g
             id="g36092">
            <g
               id="g36086" />
            <g
               id="g36090">
              <g
                 clip-path="url(#clipPath36082)"
                 id="g36088" />
            </g>
          </g>
        </g>
      </g>
    </mask>
    <clipPath
       clipPathUnits="userSpaceOnUse"
       id="clipPath36078">
      <path
         d="M -24268,24880 H 8498 V -7886 h -32766 z"
         id="path36076"
         inkscape:connector-curvature="0" />
    </clipPath>
    <clipPath
       clipPathUnits="userSpaceOnUse"
       id="clipPath36082">
      <path
         d="M -24268,24880 H 8498 V -7886 h -32766 z"
         id="path36080"
         inkscape:connector-curvature="0" />
    </clipPath>
    <linearGradient
       x1="0"
       y1="0"
       x2="1"
       y2="0"
       gradientUnits="userSpaceOnUse"
       gradientTransform="matrix(-37.434158,-21.085861,21.085876,-37.434158,308.19922,378.60498)"
       spreadMethod="pad"
       id="linearGradient36102">
      <stop
         style="stop-opacity:1;stop-color:#231f20"
         offset="0"
         id="stop36098" />
      <stop
         style="stop-opacity:1;stop-color:#ffffff"
         offset="1"
         id="stop36100" />
    </linearGradient>
    <clipPath
       clipPathUnits="userSpaceOnUse"
       id="clipPath36138">
      <path
         d="m 278.295,404.989 h 35.41 V 340.25 h -35.41 z"
         id="path36136"
         inkscape:connector-curvature="0" />
    </clipPath>
    <linearGradient
       x1="0"
       y1="0"
       x2="1"
       y2="0"
       gradientUnits="userSpaceOnUse"
       gradientTransform="matrix(-37.434158,-21.085861,21.085876,-37.434158,308.19922,378.60498)"
       spreadMethod="pad"
       id="linearGradient36148">
      <stop
         style="stop-opacity:1;stop-color:#2b95d7"
         offset="0"
         id="stop36144" />
      <stop
         style="stop-opacity:1;stop-color:#2b95d7"
         offset="1"
         id="stop36146" />
    </linearGradient>
    <mask
       maskUnits="userSpaceOnUse"
       x="0"
       y="0"
       width="1"
       height="1"
       id="mask36208">
      <g
         id="g36234">
        <g
           clip-path="url(#clipPath36170)"
           id="g36232">
          <g
             id="g36230">
            <g
               id="g36210" />
            <g
               id="g36228">
              <g
                 clip-path="url(#clipPath36174)"
                 id="g36226">
                <g
                   id="g36224">
                  <g
                     clip-path="url(#clipPath36178)"
                     id="g36222">
                    <g
                       id="g36220">
                      <g
                         id="g36212" />
                      <g
                         mask="url(#mask36188)"
                         id="g36218">
                        <g
                           id="g36216">
                          <path
                             d="m 274.183,367.066 0.003,0.067 c -0.329,0.037 -0.842,0.088 -1.479,0.146 -0.74,0.089 -1.499,0.157 -2.276,0.205 -5.653,0.493 -15.91,1.312 -24.008,1.952 -2.353,0.731 -4.647,1.759 -6.823,3.216 l 2.102,28.965 32.348,1.415 0.914,-36.117 c -0.257,0.054 -0.516,0.106 -0.781,0.151"
                             style="fill:url(#linearGradient36206);stroke:none"
                             id="path36214"
                             inkscape:connector-curvature="0" />
                        </g>
                      </g>
                    </g>
                  </g>
                </g>
              </g>
            </g>
          </g>
        </g>
      </g>
    </mask>
    <clipPath
       clipPathUnits="userSpaceOnUse"
       id="clipPath36170">
      <path
         d="m 239.6,403.032 h 35.364 V 366.915 H 239.6 Z"
         id="path36168"
         inkscape:connector-curvature="0" />
    </clipPath>
    <clipPath
       clipPathUnits="userSpaceOnUse"
       id="clipPath36174">
      <path
         d="m 239.6,403.032 h 35.364 V 366.915 H 239.6 Z"
         id="path36172"
         inkscape:connector-curvature="0" />
    </clipPath>
    <clipPath
       clipPathUnits="userSpaceOnUse"
       id="clipPath36178">
      <path
         d="m 274.183,367.066 0.003,0.067 c -0.329,0.037 -0.842,0.088 -1.479,0.146 -0.74,0.089 -1.499,0.157 -2.276,0.205 -5.653,0.493 -15.91,1.312 -24.008,1.952 -2.353,0.731 -4.647,1.759 -6.823,3.216 l 2.102,28.965 32.348,1.415 0.914,-36.117 c -0.257,0.054 -0.516,0.106 -0.781,0.151"
         id="path36176"
         inkscape:connector-curvature="0" />
    </clipPath>
    <mask
       maskUnits="userSpaceOnUse"
       x="0"
       y="0"
       width="1"
       height="1"
       id="mask36188">
      <g
         id="g36200">
        <g
           clip-path="url(#clipPath36182)"
           id="g36198">
          <g
             id="g36196">
            <g
               id="g36190" />
            <g
               id="g36194">
              <g
                 clip-path="url(#clipPath36186)"
                 id="g36192" />
            </g>
          </g>
        </g>
      </g>
    </mask>
    <clipPath
       clipPathUnits="userSpaceOnUse"
       id="clipPath36182">
      <path
         d="M -24268,24880 H 8498 V -7886 h -32766 z"
         id="path36180"
         inkscape:connector-curvature="0" />
    </clipPath>
    <clipPath
       clipPathUnits="userSpaceOnUse"
       id="clipPath36186">
      <path
         d="M -24268,24880 H 8498 V -7886 h -32766 z"
         id="path36184"
         inkscape:connector-curvature="0" />
    </clipPath>
    <linearGradient
       x1="0"
       y1="0"
       x2="1"
       y2="0"
       gradientUnits="userSpaceOnUse"
       gradientTransform="matrix(-35.711319,-1.562149,1.562149,-35.711319,274.83887,384.98779)"
       spreadMethod="pad"
       id="linearGradient36206">
      <stop
         style="stop-opacity:1;stop-color:#231f20"
         offset="0"
         id="stop36202" />
      <stop
         style="stop-opacity:1;stop-color:#ffffff"
         offset="1"
         id="stop36204" />
    </linearGradient>
    <clipPath
       clipPathUnits="userSpaceOnUse"
       id="clipPath36242">
      <path
         d="m 239.6,403.032 h 35.364 V 366.915 H 239.6 Z"
         id="path36240"
         inkscape:connector-curvature="0" />
    </clipPath>
    <linearGradient
       x1="0"
       y1="0"
       x2="1"
       y2="0"
       gradientUnits="userSpaceOnUse"
       gradientTransform="matrix(-35.711319,-1.562149,1.562149,-35.711319,274.83887,384.98779)"
       spreadMethod="pad"
       id="linearGradient36252">
      <stop
         style="stop-opacity:1;stop-color:#2b95d7"
         offset="0"
         id="stop36248" />
      <stop
         style="stop-opacity:1;stop-color:#2b95d7"
         offset="1"
         id="stop36250" />
    </linearGradient>
  </defs>
  <sodipodi:namedview
     id="base"
     pagecolor="#ffffff"
     bordercolor="#666666"
     borderopacity="1.0"
     inkscape:pageopacity="0.0"
     inkscape:pageshadow="2"
     inkscape:zoom="0.35"
     inkscape:cx="140.2366"
     inkscape:cy="101.79361"
     inkscape:document-units="mm"
     inkscape:current-layer="layer1"
     showgrid="false"
     fit-margin-top="0"
     fit-margin-left="0"
     fit-margin-right="0"
     fit-margin-bottom="0"
     inkscape:window-width="1920"
     inkscape:window-height="1017"
     inkscape:window-x="3832"
     inkscape:window-y="-8"
     inkscape:window-maximized="1" />
  <metadata
     id="metadata2699">
    <rdf:RDF>
      <cc:Work
         rdf:about="">
        <dc:format>image/svg+xml</dc:format>
        <dc:type
           rdf:resource="http://purl.org/dc/dcmitype/StillImage" />
        <dc:title>Tractor</dc:title>
        <cc:license
           rdf:resource="http://creativecommons.org/publicdomain/zero/1.0/" />
      </cc:Work>
      <cc:License
         rdf:about="http://creativecommons.org/publicdomain/zero/1.0/">
        <cc:permits
           rdf:resource="http://creativecommons.org/ns#Reproduction" />
        <cc:permits
           rdf:resource="http://creativecommons.org/ns#Distribution" />
        <cc:permits
           rdf:resource="http://creativecommons.org/ns#DerivativeWorks" />
      </cc:License>
    </rdf:RDF>
  </metadata>
  <g
     inkscape:label="Layer 1"
     inkscape:groupmode="layer"
     id="layer1"
     transform="translate(-68.729066,-121.90044)">
    <g
       transform="matrix(0.35277777,0,0,-0.35277777,-6.6304787,268.13439)"
       id="g1953">
      <g
         id="g36060">
        <g
           id="g36062" />
        <g
           mask="url(#mask36104)"
           id="g36132">
          <g
             id="g36134" />
          <g
             id="g36162">
            <g
               id="g36160"
               clip-path="url(#clipPath36138)">
              <g
                 id="g36158">
                <g
                   id="g36156">
                  <g
                     id="g36154">
                    <g
                       id="g36152">
                      <path
                         inkscape:connector-curvature="0"
                         id="path36150"
                         style="fill:url(#linearGradient36148);stroke:none"
                         d="m 280.395,364.731 c -0.309,0.214 -0.631,0.412 -0.961,0.597 l -1.139,37.89 34.268,1.771 1.142,-64.739 -15.277,0.199 c -3.064,9.247 -9.069,18.019 -18.033,24.282" />
                    </g>
                  </g>
                </g>
              </g>
            </g>
          </g>
        </g>
      </g>
      <g
         id="g36164">
        <g
           id="g36166" />
        <g
           mask="url(#mask36208)"
           id="g36236">
          <g
             id="g36238" />
          <g
             id="g36266">
            <g
               id="g36264"
               clip-path="url(#clipPath36242)">
              <g
                 id="g36262">
                <g
                   id="g36260">
                  <g
                     id="g36258">
                    <g
                       id="g36256">
                      <path
                         inkscape:connector-curvature="0"
                         id="path36254"
                         style="fill:url(#linearGradient36252);stroke:none"
                         d="m 274.183,367.066 0.003,0.067 c -0.329,0.037 -0.842,0.088 -1.479,0.146 -0.74,0.089 -1.499,0.157 -2.276,0.205 -5.653,0.493 -15.91,1.312 -24.008,1.952 -2.353,0.731 -4.647,1.759 -6.823,3.216 l 2.102,28.965 32.348,1.415 0.914,-36.117 c -0.257,0.054 -0.516,0.106 -0.781,0.151" />
                    </g>
                  </g>
                </g>
              </g>
            </g>
          </g>
        </g>
      </g>
      <path
         inkscape:connector-curvature="0"
         id="path36268"
         style="fill:#f6e631;fill-opacity:1;fill-rule:nonzero;stroke:none"
         d="m 218.396,352.541 c 0.023,1.724 1.862,3.152 4.186,3.254 0.114,0.005 0.23,0.007 0.346,0.005 0.557,-0.008 1.171,-1.254 1.2,-3.098 0.031,-1.991 -0.64,-3.51 -1.257,-3.536 l -0.031,-10e-4 c -2.474,0.033 -4.467,1.547 -4.444,3.376" />
      <path
         inkscape:connector-curvature="0"
         id="path36270"
         style="fill:#f6e631;fill-opacity:1;fill-rule:nonzero;stroke:none"
         d="m 393.062,351.638 c -0.251,-10e-4 -1.162,1.035 -1.939,3.618 -0.777,2.584 -0.589,3.946 -0.38,4.08 0.142,0.042 0.29,0.067 0.443,0.074 1.323,0.058 2.742,-1.294 3.298,-3.144 0.641,-2.122 0.002,-4.198 -1.422,-4.628" />
      <path
         inkscape:connector-curvature="0"
         id="path36272"
         style="fill:#e8653c;fill-opacity:1;fill-rule:nonzero;stroke:none"
         d="m 246.219,305.57 c -0.283,6.473 4.753,11.969 11.223,12.251 6.472,0.283 11.968,-4.751 12.251,-11.223 0.283,-6.471 -4.753,-11.966 -11.224,-12.249 -6.47,-0.284 -11.967,4.752 -12.25,11.221" />
      <path
         inkscape:connector-curvature="0"
         id="path36274"
         style="fill:#e8653c;fill-opacity:1;fill-rule:nonzero;stroke:none"
         d="m 389.974,293.896 c -4.788,-0.21 -8.855,3.516 -9.064,8.305 -0.21,4.79 3.515,8.857 8.304,9.065 4.789,0.21 8.855,-3.516 9.065,-8.305 0.209,-4.789 -3.516,-8.857 -8.305,-9.065" />
      <path
         inkscape:connector-curvature="0"
         id="path36276"
         style="fill:#ee982c;fill-opacity:1;fill-rule:nonzero;stroke:none"
         d="m 342.572,332.435 c -0.142,-1.068 -0.679,-2.923 -2.695,-3.012 -0.432,-0.019 -0.919,0.036 -1.453,0.168 -1.326,0.359 -8.815,3.399 -12.284,4.826 -1.408,23.861 -3.291,59.542 -2.812,61.805 0.686,2.446 2.855,6.751 6.757,9.261 -0.268,-0.917 -0.398,-1.948 -0.351,-3.046 0.114,-2.576 1.156,-4.722 2.624,-5.764 -1.529,-1.071 -3.172,-2.465 -3.769,-3.839 -1.517,-4.682 1.493,-50.09 1.843,-55.253 0.027,-0.412 0.295,-0.769 0.681,-0.913 z" />
      <path
         inkscape:connector-curvature="0"
         id="path36278"
         style="fill:#ee982c;fill-opacity:1;fill-rule:nonzero;stroke:none"
         d="m 342.574,356.276 -9.447,-18.115 -0.648,0.239 c -0.059,0.883 -0.12,1.794 -0.18,2.713 l 8.416,16.134 c 0.267,0.514 0.901,0.713 1.416,0.444 0.513,-0.268 0.713,-0.901 0.443,-1.415" />
      <path
         inkscape:connector-curvature="0"
         id="path36280"
         style="fill:#ee982c;fill-opacity:1;fill-rule:nonzero;stroke:none"
         d="m 349.277,356.569 -9.565,-18.34 c -0.181,-0.345 -0.523,-0.547 -0.886,-0.564 -0.178,-0.008 -0.361,0.029 -0.531,0.118 -0.513,0.268 -0.711,0.903 -0.443,1.416 l 9.565,18.341 c 0.269,0.514 0.903,0.714 1.416,0.445 0.513,-0.268 0.712,-0.902 0.444,-1.416" />
      <path
         inkscape:connector-curvature="0"
         id="path36282"
         style="fill:#ee982c;fill-opacity:1;fill-rule:nonzero;stroke:none"
         d="m 355.982,356.863 -9.568,-18.342 c -0.18,-0.344 -0.522,-0.546 -0.885,-0.563 -0.177,-0.008 -0.361,0.029 -0.53,0.118 -0.515,0.269 -0.712,0.902 -0.445,1.416 l 9.567,18.342 c 0.269,0.513 0.902,0.713 1.414,0.444 0.516,-0.268 0.714,-0.902 0.447,-1.415" />
      <path
         inkscape:connector-curvature="0"
         id="path36284"
         style="fill:#ee982c;fill-opacity:1;fill-rule:nonzero;stroke:none"
         d="m 362.686,357.155 -9.569,-18.341 c -0.179,-0.343 -0.523,-0.546 -0.885,-0.563 -0.178,-0.007 -0.361,0.029 -0.531,0.118 -0.512,0.27 -0.711,0.902 -0.444,1.416 l 9.566,18.343 c 0.269,0.513 0.902,0.712 1.416,0.443 0.514,-0.268 0.713,-0.901 0.447,-1.416" />
      <path
         inkscape:connector-curvature="0"
         id="path36286"
         style="fill:#ee982c;fill-opacity:1;fill-rule:nonzero;stroke:none"
         d="m 351.667,310.438 c 0.808,17.044 7.874,26.529 14.344,31.674 8.737,6.951 18.489,7.798 20.389,7.12 2.273,-0.811 7.746,-3.813 11.616,-5.999 -2.286,0.24 -5.5,0.479 -9.348,0.294 -1.969,-0.076 -4.096,-0.309 -6.328,-0.651 -2.225,-0.407 -4.565,-0.904 -6.906,-1.709 -2.332,-0.815 -4.717,-1.781 -6.944,-3.138 l -0.846,-0.483 -0.813,-0.552 c -0.536,-0.374 -1.087,-0.734 -1.614,-1.122 -1.004,-0.851 -2.076,-1.624 -2.977,-2.593 -1.936,-1.794 -3.48,-3.943 -4.9,-6.077 -0.625,-1.121 -1.276,-2.22 -1.818,-3.348 -0.48,-1.157 -1.045,-2.261 -1.429,-3.413 -0.368,-1.155 -0.802,-2.266 -1.091,-3.393 -0.273,-1.129 -0.541,-2.233 -0.803,-3.307 -0.178,-1.137 -0.372,-2.236 -0.532,-3.303" />
      <path
         inkscape:connector-curvature="0"
         id="path36288"
         style="fill:#ee982c;fill-opacity:1;fill-rule:nonzero;stroke:none"
         d="m 336.996,306.176 -0.383,21.817 c 0.575,-0.21 1.024,-0.362 1.288,-0.434 0.751,-0.184 1.438,-0.26 2.068,-0.233 2.291,0.102 3.549,1.495 4.186,3.011 l 4.611,0.175 c -3.172,-7.861 -4.674,-15.885 -4.921,-24.036 l -2.012,-0.088 -1.542,-0.068 z" />
      <path
         inkscape:connector-curvature="0"
         id="path36290"
         style="fill:#ee982c;fill-opacity:1;fill-rule:nonzero;stroke:none"
         d="m 326.522,329.668 5.251,0.2 c 0.944,-0.377 1.877,-0.744 2.729,-1.076 l 0.398,-22.707 -7.331,-0.321 z" />
      <path
         inkscape:connector-curvature="0"
         id="path36292"
         style="fill:#ee982c;fill-opacity:1;fill-rule:nonzero;stroke:none"
         d="m 225.81,359.308 c 4.339,1.282 30.407,8.228 51.258,-2.888 9.396,-5.01 16.475,-13.002 21.136,-23.801 -0.194,-0.015 -0.384,-0.028 -0.568,-0.042 -0.031,0.05 -0.06,0.1 -0.094,0.15 -1.259,2.119 -2.899,4.235 -4.751,6.371 -1.866,2.13 -4.063,4.163 -6.46,6.125 -2.422,1.934 -5.112,3.696 -7.972,5.283 -2.875,1.56 -5.962,2.845 -9.138,3.89 -3.189,1.021 -6.494,1.669 -9.788,2.077 -1.653,0.108 -3.297,0.304 -4.93,0.256 -0.815,-0.012 -1.629,0.031 -2.434,-0.028 -0.803,-0.058 -1.603,-0.117 -2.395,-0.174 -0.798,-0.035 -1.573,-0.173 -2.347,-0.286 -0.773,-0.119 -1.539,-0.236 -2.298,-0.351 -1.485,-0.362 -2.973,-0.62 -4.368,-1.056 -2.809,-0.81 -5.401,-1.798 -7.717,-2.864 -1.142,-0.565 -2.265,-1.063 -3.282,-1.622 -1.008,-0.58 -1.962,-1.13 -2.859,-1.648 -0.955,-0.585 -1.815,-1.157 -2.604,-1.695 l 0.064,0.492 c 1.378,0.915 1.994,3.149 1.962,5.236 -0.022,1.444 -0.319,2.639 -0.816,3.524 z" />
      <path
         inkscape:connector-curvature="0"
         id="path36294"
         style="fill:#ffffff;fill-opacity:1;fill-rule:nonzero;stroke:none"
         d="m 294.692,381.657 c 0.101,-2.316 2.06,-4.11 4.374,-4.009 2.317,0.101 4.112,2.06 4.01,4.375 -0.101,2.316 -2.059,4.11 -4.375,4.009 -2.316,-0.101 -4.111,-2.06 -4.009,-4.375" />
      <path
         inkscape:connector-curvature="0"
         id="path36296"
         style="fill:#ffffff;fill-opacity:1;fill-rule:nonzero;stroke:none"
         d="m 258.966,385.581 c 0.031,-0.71 0.632,-1.26 1.341,-1.228 0.71,0.031 1.261,0.631 1.23,1.341 -0.032,0.709 -0.633,1.26 -1.342,1.229 -0.71,-0.031 -1.26,-0.632 -1.229,-1.342" />
      <path
         inkscape:connector-curvature="0"
         id="path36298"
         style="fill:#ffffff;fill-opacity:1;fill-rule:nonzero;stroke:none"
         d="m 285.102,394.337 c 0.05,-1.14 1.017,-2.024 2.156,-1.974 1.138,0.05 2.025,1.015 1.975,2.156 -0.05,1.139 -1.017,2.023 -2.155,1.973 -1.14,-0.05 -2.026,-1.014 -1.976,-2.155" />
      <path
         inkscape:connector-curvature="0"
         id="path36300"
         style="fill:#ffffff;fill-opacity:1;fill-rule:nonzero;stroke:none"
         d="m 247.029,392.672 c 0.064,-1.458 1.298,-2.588 2.755,-2.525 1.458,0.065 2.588,1.297 2.524,2.756 -0.064,1.457 -1.297,2.587 -2.755,2.524 -1.457,-0.064 -2.588,-1.297 -2.524,-2.755" />
      <path
         inkscape:connector-curvature="0"
         id="path36302"
         style="fill:#2f2e2f;fill-opacity:1;fill-rule:nonzero;stroke:none"
         d="m 302.787,329.397 c 4.455,0.195 20.389,0.022 20.389,0.022 l 1.041,-23.802 -15.488,-0.05 c 0,0 -1.143,18.182 -5.942,23.83 m 7.109,-28.478 c 3.126,0.159 7.804,0.385 13.449,0.616 l 0.134,-3.041 -13.452,-0.588 z m 13.432,95.303 c 0.686,2.446 2.855,6.751 6.757,9.261 -0.268,-0.917 -0.398,-1.948 -0.351,-3.046 0.114,-2.576 1.156,-4.722 2.624,-5.764 -1.529,-1.071 -3.172,-2.465 -3.769,-3.839 -1.517,-4.682 1.493,-50.09 1.843,-55.253 0.027,-0.412 0.295,-0.769 0.681,-0.913 l 11.459,-4.233 c -0.142,-1.068 -0.679,-2.923 -2.695,-3.012 -0.432,-0.019 -0.919,0.036 -1.453,0.168 -1.326,0.359 -8.815,3.399 -12.284,4.826 -1.408,23.861 -3.291,59.542 -2.812,61.805 m 3.194,-66.554 5.251,0.2 c 0.944,-0.377 1.877,-0.744 2.729,-1.076 l 0.398,-22.707 -7.331,-0.321 z m 10.474,-23.492 -0.383,21.817 c 0.575,-0.21 1.024,-0.362 1.288,-0.434 0.751,-0.184 1.438,-0.26 2.068,-0.233 2.291,0.102 3.549,1.495 4.186,3.011 l 4.611,0.175 c -3.172,-7.861 -4.674,-15.885 -4.921,-24.036 l -2.012,-0.088 -1.542,-0.068 z m 7.719,26.745 c 0.002,0.079 0.006,0.161 0.006,0.233 -0.004,0.438 -0.278,0.825 -0.686,0.975 l -1.355,0.502 13.725,-0.199 c -0.337,-0.538 -0.665,-1.099 -0.986,-1.674 -0.797,0.015 -4.929,0.089 -10.704,0.163 m 6.952,-22.483 c 0.808,17.044 7.874,26.529 14.344,31.674 8.737,6.951 18.489,7.798 20.389,7.12 2.273,-0.811 7.746,-3.813 11.616,-5.999 -2.286,0.24 -5.5,0.479 -9.348,0.294 -1.969,-0.076 -4.096,-0.309 -6.328,-0.651 -2.225,-0.407 -4.565,-0.904 -6.906,-1.709 -2.332,-0.815 -4.717,-1.781 -6.944,-3.138 l -0.846,-0.483 -0.813,-0.552 c -0.536,-0.374 -1.087,-0.734 -1.614,-1.122 -1.004,-0.851 -2.076,-1.624 -2.977,-2.593 -1.936,-1.794 -3.48,-3.943 -4.9,-6.077 -0.625,-1.121 -1.276,-2.22 -1.818,-3.348 -0.48,-1.157 -1.045,-2.261 -1.429,-3.413 -0.368,-1.155 -0.802,-2.266 -1.091,-3.393 -0.273,-1.129 -0.541,-2.233 -0.803,-3.307 -0.178,-1.137 -0.372,-2.236 -0.532,-3.303 m 41.395,41.2 c -0.251,-10e-4 -1.162,1.035 -1.939,3.618 -0.777,2.584 -0.589,3.946 -0.38,4.08 0.142,0.042 0.29,0.067 0.443,0.074 1.323,0.058 2.742,-1.294 3.298,-3.144 0.641,-2.122 0.002,-4.198 -1.422,-4.628 m -1.826,-1.916 c -5.447,2.556 -20.639,3.813 -32.146,-11.17 -0.873,3.945 10.871,20.499 10.871,20.499 5.738,0.408 11.691,0.132 17.983,-1.229 z m -28.55,7.433 -9.569,-18.341 c -0.179,-0.343 -0.523,-0.546 -0.885,-0.563 -0.178,-0.007 -0.361,0.029 -0.531,0.118 -0.512,0.27 -0.711,0.902 -0.444,1.416 l 9.566,18.343 c 0.269,0.513 0.902,0.712 1.416,0.443 0.514,-0.268 0.713,-0.901 0.447,-1.416 m -6.704,-0.292 -9.568,-18.342 c -0.18,-0.344 -0.522,-0.546 -0.885,-0.563 -0.177,-0.008 -0.361,0.029 -0.53,0.118 -0.515,0.269 -0.712,0.902 -0.445,1.416 l 9.567,18.342 c 0.269,0.513 0.902,0.713 1.414,0.444 0.516,-0.268 0.714,-0.902 0.447,-1.415 m -6.705,-0.294 -9.565,-18.34 c -0.181,-0.345 -0.523,-0.547 -0.886,-0.564 -0.178,-0.008 -0.361,0.029 -0.531,0.118 -0.513,0.268 -0.711,0.903 -0.443,1.416 l 9.565,18.341 c 0.269,0.514 0.903,0.714 1.416,0.445 0.513,-0.268 0.712,-0.902 0.444,-1.416 m -6.703,-0.293 -9.447,-18.115 -0.648,0.239 c -0.059,0.883 -0.12,1.794 -0.18,2.713 l 8.416,16.134 c 0.267,0.514 0.901,0.713 1.416,0.444 0.513,-0.268 0.713,-0.901 0.443,-1.415 m -44.146,-15.827 c -3.064,9.247 -9.069,18.019 -18.033,24.282 -0.309,0.214 -0.631,0.412 -0.961,0.597 l -1.139,37.89 34.268,1.771 1.142,-64.739 z m 13.18,67.338 -68.275,-2.986 -0.083,1.881 68.276,2.987 z m -72.008,-35.135 2.102,28.965 32.348,1.415 0.914,-36.117 c -0.257,0.054 -0.516,0.106 -0.781,0.151 l 0.003,0.067 c -0.329,0.037 -0.842,0.088 -1.479,0.146 -0.74,0.089 -1.499,0.157 -2.276,0.205 -5.653,0.493 -15.91,1.312 -24.008,1.952 -2.353,0.731 -4.647,1.759 -6.823,3.216 m 37.468,-16.232 c 9.396,-5.01 16.475,-13.002 21.136,-23.801 -0.194,-0.015 -0.384,-0.028 -0.568,-0.042 -0.031,0.05 -0.06,0.1 -0.094,0.15 -1.259,2.119 -2.899,4.235 -4.751,6.371 -1.866,2.13 -4.063,4.163 -6.46,6.125 -2.422,1.934 -5.112,3.696 -7.972,5.283 -2.875,1.56 -5.962,2.845 -9.138,3.89 -3.189,1.021 -6.494,1.669 -9.788,2.077 -1.653,0.108 -3.297,0.304 -4.93,0.256 -0.815,-0.012 -1.629,0.031 -2.434,-0.028 -0.803,-0.058 -1.603,-0.117 -2.395,-0.174 -0.798,-0.035 -1.573,-0.173 -2.347,-0.286 -0.773,-0.119 -1.539,-0.236 -2.298,-0.351 -1.485,-0.362 -2.973,-0.62 -4.368,-1.056 -2.809,-0.81 -5.401,-1.798 -7.717,-2.864 -1.142,-0.565 -2.265,-1.063 -3.282,-1.622 -1.008,-0.58 -1.962,-1.13 -2.859,-1.648 -0.955,-0.585 -1.815,-1.157 -2.604,-1.695 l 0.064,0.492 c 1.378,0.915 1.994,3.149 1.962,5.236 -0.022,1.444 -0.319,2.639 -0.816,3.524 l 0.401,3.051 c 4.339,1.282 30.407,8.228 51.258,-2.888 m -52.94,-3.718 c 0.031,-1.991 -0.64,-3.51 -1.257,-3.536 l -0.031,-10e-4 c -2.474,0.033 -4.467,1.547 -4.444,3.376 0.023,1.724 1.862,3.152 4.186,3.254 0.114,0.005 0.23,0.007 0.346,0.005 0.557,-0.008 1.171,-1.254 1.2,-3.098 m 83.673,-51.895 0.132,-2.994 -1.573,-0.067 0.138,-3.143 1.571,0.068 0.01,-0.208 2.096,0.092 -0.009,0.208 13.449,0.589 0.009,-0.208 2.097,0.09 -0.009,0.208 2.008,0.088 -0.137,3.144 -2.009,-0.088 -0.134,3.035 c 4.419,0.174 9.333,0.348 14.5,0.494 l -0.331,-6.345 12.688,0.707 -0.122,1.041 c -0.297,2.543 -0.471,4.955 -0.543,7.252 10e-4,0.015 10e-4,0.028 0.003,0.043 0.097,0.862 0.239,1.763 0.365,2.704 0.199,1.891 0.705,3.887 1.148,6.006 0.309,1.038 0.627,2.103 0.95,3.19 0.34,1.083 0.818,2.141 1.228,3.238 0.427,1.093 1.031,2.127 1.545,3.213 0.576,1.055 1.252,2.066 1.895,3.102 1.457,1.954 3.005,3.896 4.901,5.473 0.88,0.862 1.923,1.528 2.888,2.27 0.51,0.336 1.039,0.641 1.554,0.963 l 0.776,0.472 0.808,0.407 c 2.121,1.15 4.383,1.927 6.582,2.575 2.212,0.636 4.42,0.984 6.512,1.258 2.106,0.21 4.105,0.328 5.955,0.303 3.699,-0.012 6.771,-0.412 8.888,-0.747 1.056,-0.184 1.881,-0.343 2.427,-0.469 0.534,-0.126 0.818,-0.195 0.818,-0.195 l 3.438,-0.418 -0.17,3.885 0.037,0.065 -0.041,0.025 v 0.021 l -0.059,0.013 -0.806,0.471 c -0.299,0.175 -4.665,2.726 -8.944,5.037 l -0.893,2.992 c 1.926,0.643 2.848,3.26 2.053,5.9 -0.703,2.334 -2.533,3.97 -4.35,3.891 -0.24,-0.01 -0.474,-0.051 -0.702,-0.119 -0.133,-0.04 -0.246,-0.109 -0.35,-0.192 -11.07,3.275 -42.363,3.991 -59.123,4.134 -0.68,13.744 -1.036,25.888 -0.416,27.813 0.532,1.21 3.04,2.984 4.955,4.103 2.005,0.737 3.371,3.413 3.23,6.633 -0.163,3.723 -2.266,6.551 -4.789,6.441 -0.417,-0.019 -0.812,-0.123 -1.185,-0.288 -6.872,-1.984 -10.482,-8.736 -11.448,-12.188 -0.431,-1.258 0.242,-16.707 1.06,-32.481 -1.484,-0.002 -2.319,-0.008 -2.319,-0.008 -0.024,-12.979 -0.13,-29.692 -0.13,-29.692 l 4.276,-0.239 c 0.027,-0.443 0.086,-1.293 0.086,-1.293 -9.056,0.017 -18.049,-0.058 -23.844,-0.334 -0.281,0.671 -0.579,1.325 -0.877,1.977 l 18.836,-0.162 -1.639,73.45 -3.056,-0.134 -0.083,1.882 11.091,0.484 c 0.87,0.039 1.542,0.774 1.504,1.642 -0.037,0.868 -0.773,1.541 -1.641,1.503 l -85.268,-3.73 -3.063,4.213 c -0.514,0.705 -1.497,0.857 -2.199,0.348 -0.702,-0.512 -0.859,-1.495 -0.348,-2.198 l 4.059,-5.582 3.397,0.15 0.082,-1.882 -3.82,-0.167 c -0.593,-11.462 -1.472,-22.935 -2.881,-34.429 -0.411,-0.985 -2.024,-4.775 -3.553,-7.368 -3.953,-0.827 -6.371,-1.608 -6.455,-1.636 -0.382,-0.127 -0.659,-0.46 -0.711,-0.859 l -0.318,-2.431 c -0.176,0.039 -0.354,0.077 -0.543,0.079 -3.643,0.044 -6.618,-2.368 -6.656,-5.328 -0.037,-2.787 2.506,-5.122 5.797,-5.46 l -0.229,-1.743 c -2.037,-1.587 -3.202,-2.495 -3.202,-2.495 l -2.487,-1.938 4.295,-4.859 2.36,2.08 c 0,0 1.161,1.025 3.194,2.817 1.075,0.814 2.35,1.86 3.89,2.938 0.785,0.52 1.62,1.071 2.5,1.653 0.891,0.564 1.877,1.066 2.88,1.646 2.036,1.093 4.322,2.126 6.819,3.016 1.239,0.474 2.566,0.778 3.899,1.198 0.68,0.145 1.368,0.293 2.064,0.442 0.696,0.146 1.396,0.319 2.118,0.392 0.718,0.097 1.445,0.193 2.174,0.292 0.732,0.099 1.477,0.101 2.223,0.158 1.495,0.141 3.011,0.045 4.547,0.044 3.057,-0.195 6.17,-0.605 9.215,-1.38 3.036,-0.801 6.028,-1.833 8.851,-3.153 2.808,-1.342 5.488,-2.869 7.929,-4.588 2.416,-1.744 4.662,-3.58 6.593,-5.532 1.916,-1.96 3.643,-3.923 4.994,-5.911 0.727,-0.96 1.285,-1.97 1.873,-2.898 0.543,-0.951 1.012,-1.883 1.449,-2.76 0.119,-0.291 0.242,-0.562 0.362,-0.841 3.079,-9.673 5.255,-24.998 5.255,-24.998 0,0 0.76,0.043 2.139,0.117 m 81.64,5.27 c 1.931,0.085 3.565,-1.411 3.65,-3.343 0.084,-1.931 -1.412,-3.565 -3.344,-3.649 -1.931,-0.084 -3.564,1.412 -3.649,3.343 -0.084,1.932 1.413,3.564 3.343,3.649 m -23.078,-3.014 c 0.013,0.633 0.048,1.261 0.113,1.881 3.095,-0.129 6.604,-0.502 10.305,-1.108 -0.025,-0.253 -0.047,-0.507 -0.056,-0.763 -4.182,-0.168 -7.614,-0.145 -10.362,-0.01 m 0.13,-2.99 c 2.726,0.375 6.143,0.698 10.324,0.897 0.032,-0.256 0.077,-0.507 0.122,-0.757 -3.634,-0.928 -7.096,-1.607 -10.169,-2.003 -0.118,0.612 -0.208,1.235 -0.277,1.863 m 1.246,-5.401 c 2.59,1.122 5.825,2.318 9.755,3.476 0.088,-0.241 0.193,-0.472 0.294,-0.708 -3.646,-1.939 -6.755,-3.417 -9.331,-4.507 -0.261,0.569 -0.504,1.145 -0.718,1.739 m 2.136,-4.371 c 2.293,1.519 5.232,3.294 8.912,5.285 0.141,-0.215 0.276,-0.43 0.427,-0.636 -3.12,-2.623 -5.903,-4.665 -8.278,-6.213 -0.375,0.504 -0.726,1.028 -1.061,1.564 m 3.471,-4.313 c 1.846,2.134 4.244,4.614 7.282,7.36 0.183,-0.178 0.37,-0.349 0.563,-0.516 -2.476,-3.374 -4.634,-6.045 -6.455,-8.108 -0.481,0.4 -0.942,0.824 -1.39,1.264 m 3.81,-3.024 c 1.405,2.361 3.281,5.231 5.729,8.617 0.219,-0.134 0.447,-0.249 0.673,-0.369 -1.682,-3.734 -3.309,-6.779 -4.773,-9.194 -0.556,0.295 -1.099,0.61 -1.629,0.946 m 4.996,-2.394 c 0.739,2.727 1.824,6.001 3.369,9.796 0.241,-0.08 0.482,-0.165 0.729,-0.231 -0.766,-4.112 -1.551,-7.45 -2.293,-10.098 -0.611,0.152 -1.213,0.331 -1.805,0.533 m 4.747,-1.072 c 0.241,2.743 0.689,6.148 1.425,10.271 0.254,-0.026 0.507,-0.047 0.764,-0.059 0.103,-4.094 -0.042,-7.539 -0.314,-10.349 -0.63,0.023 -1.256,0.066 -1.875,0.137 m 3.075,14.398 c -4.788,-0.21 -8.855,3.516 -9.064,8.305 -0.21,4.79 3.515,8.857 8.304,9.065 4.789,0.21 8.855,-3.516 9.065,-8.305 0.209,-4.789 -3.516,-8.857 -8.305,-9.065 m 1.248,-4.092 c 0.256,0.034 0.507,0.077 0.757,0.124 1.093,-4.042 1.836,-7.396 2.317,-10.107 -0.61,-0.126 -1.231,-0.222 -1.857,-0.3 -0.516,2.776 -0.963,6.196 -1.217,10.283 m 2.79,0.671 c 0.242,0.088 0.474,0.192 0.708,0.294 1.872,-3.644 3.236,-6.814 4.211,-9.465 -0.573,-0.251 -1.156,-0.482 -1.752,-0.689 -0.97,2.573 -2.044,5.832 -3.167,9.86 m 2.589,1.307 c 0.214,0.14 0.432,0.277 0.637,0.427 2.734,-3.159 4.856,-5.853 6.461,-8.082 -0.498,-0.381 -1.011,-0.744 -1.54,-1.085 -1.67,2.277 -3.555,5.167 -5.558,8.74 m 9.355,-5.693 c -1.993,1.897 -4.376,4.371 -7.138,7.515 0.178,0.184 0.35,0.371 0.516,0.563 3.266,-2.469 5.871,-4.731 7.898,-6.695 -0.408,-0.477 -0.832,-0.94 -1.276,-1.383 m -5.354,9.799 c 0.132,0.216 0.25,0.444 0.369,0.669 3.84,-1.663 6.924,-3.172 9.341,-4.488 -0.287,-0.56 -0.591,-1.112 -0.92,-1.648 -2.5,1.334 -5.453,3.126 -8.79,5.467 m 1.201,2.603 c 0.083,0.243 0.164,0.483 0.232,0.73 4.015,-0.809 7.343,-1.719 10.022,-2.611 -0.162,-0.607 -0.353,-1.205 -0.563,-1.794 -2.663,0.861 -5.888,2.061 -9.691,3.675 m 0.604,2.836 c 0.026,0.253 0.047,0.507 0.057,0.765 4.182,0.166 7.613,0.143 10.362,0.009 -0.013,-0.633 -0.049,-1.261 -0.113,-1.881 -3.096,0.127 -6.605,0.503 -10.306,1.107 m 10.288,3.764 c -2.725,-0.376 -6.142,-0.698 -10.323,-0.897 -0.032,0.255 -0.076,0.506 -0.123,0.755 3.634,0.928 7.096,1.607 10.17,2.005 0.116,-0.612 0.207,-1.234 0.276,-1.863 m -1.246,5.399 c -2.59,-1.122 -5.826,-2.317 -9.755,-3.474 -0.089,0.24 -0.192,0.472 -0.296,0.707 3.649,1.94 6.756,3.419 9.333,4.507 0.262,-0.568 0.503,-1.146 0.718,-1.74 m -2.136,4.374 c -2.292,-1.521 -5.232,-3.294 -8.913,-5.286 -0.138,0.213 -0.274,0.43 -0.424,0.634 3.119,2.623 5.902,4.667 8.276,6.216 0.376,-0.507 0.727,-1.031 1.061,-1.564 m -3.47,4.313 c -1.848,-2.135 -4.245,-4.616 -7.281,-7.362 -0.184,0.177 -0.372,0.349 -0.564,0.516 2.476,3.374 4.634,6.047 6.453,8.11 0.482,-0.403 0.945,-0.826 1.392,-1.264 m -3.811,3.022 c -1.404,-2.361 -3.282,-5.231 -5.728,-8.618 -0.218,0.133 -0.448,0.249 -0.672,0.37 1.681,3.736 3.307,6.778 4.772,9.193 0.557,-0.294 1.099,-0.609 1.628,-0.945 m -4.996,2.394 c -0.738,-2.726 -1.822,-6.003 -3.367,-9.796 -0.243,0.08 -0.483,0.165 -0.731,0.231 0.766,4.111 1.55,7.451 2.294,10.097 0.612,-0.154 1.213,-0.331 1.804,-0.532 m -4.748,1.07 c -0.239,-2.742 -0.687,-6.146 -1.425,-10.269 -0.253,0.025 -0.506,0.049 -0.762,0.057 -0.106,4.094 0.041,7.54 0.313,10.35 0.631,-0.022 1.258,-0.065 1.874,-0.138 m -4.322,-10.306 c -0.255,-0.03 -0.505,-0.075 -0.755,-0.124 -1.096,4.044 -1.838,7.397 -2.318,10.107 0.611,0.126 1.228,0.224 1.855,0.302 0.519,-2.777 0.964,-6.197 1.218,-10.285 m -2.79,-0.669 c -0.241,-0.086 -0.473,-0.192 -0.707,-0.293 -1.871,3.644 -3.238,6.814 -4.211,9.463 0.57,0.252 1.155,0.483 1.75,0.688 0.972,-2.57 2.046,-5.829 3.168,-9.858 m -2.589,-1.308 c -0.215,-0.139 -0.433,-0.276 -0.638,-0.426 -2.733,3.158 -4.854,5.853 -6.461,8.081 0.498,0.382 1.012,0.745 1.542,1.085 1.668,-2.276 3.555,-5.165 5.557,-8.74 m -9.354,5.693 c 1.993,-1.896 4.376,-4.37 7.138,-7.514 -0.178,-0.183 -0.35,-0.371 -0.517,-0.564 -3.265,2.47 -5.87,4.733 -7.898,6.696 0.409,0.477 0.831,0.94 1.277,1.382 m 5.353,-9.797 c -0.132,-0.217 -0.247,-0.445 -0.368,-0.669 -3.84,1.664 -6.923,3.171 -9.341,4.485 0.287,0.562 0.59,1.114 0.921,1.652 2.5,-1.335 5.451,-3.128 8.788,-5.468 m -1.201,-2.604 c -0.081,-0.242 -0.164,-0.483 -0.232,-0.73 -4.013,0.809 -7.342,1.718 -10.021,2.609 0.161,0.608 0.352,1.206 0.562,1.795 2.663,-0.858 5.888,-2.061 9.691,-3.674 m -20.466,-4.224 c 0.002,-0.429 0.005,-0.861 0.024,-1.295 0.02,-0.45 0.054,-0.896 0.092,-1.34 -0.987,-0.555 -1.566,-1.197 -1.533,-1.945 0.017,-0.392 0.069,-1.308 2.066,-1.815 0.296,-1.456 0.69,-2.877 1.171,-4.254 -0.757,-0.775 -1.119,-1.492 -1.02,-2.12 0.088,-0.557 0.528,-1.48 2.486,-1.402 0.386,-0.792 0.801,-1.566 1.247,-2.318 -0.552,-0.788 -0.821,-1.508 -0.657,-2.103 0.08,-0.292 0.456,-1.229 1.966,-1.164 0.236,0.011 0.516,0.056 0.815,0.118 0.894,-1.174 1.861,-2.288 2.902,-3.328 -0.288,-0.841 -0.366,-1.543 -0.168,-2.037 0.248,-0.625 0.847,-0.994 1.559,-0.966 0.402,0.019 0.888,0.19 1.444,0.486 0.684,-0.543 1.387,-1.061 2.115,-1.549 -0.133,-0.79 -0.106,-1.444 0.142,-1.908 0.286,-0.532 0.824,-0.834 1.438,-0.808 0.488,0.022 1.067,0.312 1.704,0.788 1.307,-0.67 2.661,-1.252 4.059,-1.745 0.08,-0.691 0.233,-1.247 0.487,-1.614 0.325,-0.473 0.817,-0.729 1.349,-0.708 l 0.002,0.001 c 0.62,0.027 1.224,0.506 1.805,1.274 0.857,-0.191 1.727,-0.348 2.607,-0.47 0.167,-0.607 0.38,-1.077 0.642,-1.377 0.344,-0.394 0.793,-0.6 1.267,-0.578 h 0.006 c 0.335,0.014 1.093,0.06 1.901,1.644 0.724,-0.016 1.451,-0.017 2.184,0.016 0.751,0.032 1.49,0.099 2.224,0.179 0.621,-0.968 1.291,-1.506 1.999,-1.474 h 10e-4 c 0.474,0.02 0.904,0.264 1.211,0.684 0.236,0.324 0.407,0.809 0.522,1.428 0.866,0.199 1.718,0.432 2.556,0.699 0.647,-0.715 1.289,-1.139 1.907,-1.113 0.534,0.023 1.002,0.323 1.286,0.821 0.221,0.388 0.325,0.955 0.343,1.654 1.351,0.61 2.65,1.31 3.892,2.091 0.676,-0.418 1.278,-0.657 1.766,-0.634 h 10e-4 c 0.615,0.026 1.124,0.374 1.362,0.929 0.206,0.484 0.178,1.139 -0.025,1.913 0.682,0.55 1.337,1.127 1.972,1.728 0.578,-0.245 1.078,-0.374 1.478,-0.356 h 10e-4 c 0.712,0.031 1.275,0.452 1.471,1.096 0.155,0.51 0.015,1.201 -0.345,2.017 0.945,1.127 1.81,2.32 2.599,3.567 0.302,-0.036 0.583,-0.056 0.821,-0.045 v 0 c 1.51,0.066 1.804,1.033 1.858,1.33 0.111,0.608 -0.221,1.302 -0.84,2.038 0.378,0.788 0.724,1.596 1.039,2.417 1.958,0.092 2.318,1.048 2.356,1.614 0.044,0.633 -0.38,1.316 -1.203,2.022 0.36,1.411 0.626,2.857 0.793,4.33 1.325,0.457 1.604,0.987 1.731,1.234 0.259,0.496 0.23,1.058 -0.078,1.542 -0.257,0.403 -0.756,0.751 -1.449,1.052 -10e-4,0.438 -0.004,0.875 -0.025,1.316 -0.017,0.433 -0.053,0.863 -0.089,1.292 1.333,0.719 1.558,1.411 1.532,1.993 -0.018,0.393 -0.071,1.308 -2.07,1.815 -0.294,1.457 -0.687,2.876 -1.168,4.254 0.756,0.777 1.118,1.494 1.02,2.121 -0.088,0.558 -0.531,1.481 -2.488,1.401 -0.385,0.791 -0.8,1.566 -1.246,2.318 0.552,0.789 0.821,1.508 0.658,2.103 -0.081,0.289 -0.458,1.231 -1.967,1.164 -0.238,-0.01 -0.516,-0.056 -0.815,-0.119 -0.892,1.174 -1.86,2.29 -2.9,3.327 0.285,0.844 0.366,1.546 0.168,2.039 -0.25,0.627 -0.849,0.993 -1.561,0.964 -0.401,-0.019 -0.886,-0.188 -1.441,-0.485 -0.686,0.544 -1.39,1.061 -2.116,1.55 0.133,0.788 0.105,1.444 -0.144,1.907 -0.286,0.533 -0.823,0.835 -1.437,0.808 -0.488,-0.022 -1.068,-0.311 -1.704,-0.788 -1.307,0.671 -2.663,1.255 -4.06,1.745 -0.079,0.692 -0.233,1.25 -0.487,1.616 -0.326,0.472 -0.819,0.729 -1.35,0.705 -0.62,-0.027 -1.223,-0.506 -1.805,-1.273 -0.856,0.19 -1.726,0.348 -2.607,0.471 -0.168,0.606 -0.381,1.076 -0.644,1.376 -0.342,0.394 -0.792,0.599 -1.266,0.579 -0.709,-0.032 -1.329,-0.626 -1.863,-1.647 -0.739,0.018 -1.481,0.02 -2.23,-0.014 -0.749,-0.032 -1.487,-0.098 -2.222,-0.18 -0.621,0.969 -1.291,1.507 -2,1.475 -0.474,-0.019 -0.904,-0.264 -1.212,-0.686 -0.235,-0.322 -0.405,-0.808 -0.52,-1.425 -0.865,-0.201 -1.72,-0.433 -2.557,-0.699 -0.646,0.715 -1.289,1.139 -1.908,1.113 -0.533,-0.023 -1.002,-0.324 -1.285,-0.821 -0.219,-0.39 -0.324,-0.957 -0.344,-1.653 -1.349,-0.613 -2.648,-1.312 -3.892,-2.092 -0.674,0.418 -1.278,0.655 -1.766,0.632 -0.613,-0.026 -1.123,-0.374 -1.361,-0.929 -0.207,-0.483 -0.178,-1.138 0.024,-1.912 -0.682,-0.549 -1.338,-1.127 -1.972,-1.728 -0.579,0.247 -1.078,0.372 -1.478,0.355 -0.713,-0.031 -1.277,-0.452 -1.473,-1.097 -0.152,-0.509 -0.011,-1.2 0.346,-2.013 -0.945,-1.127 -1.811,-2.32 -2.599,-3.569 -0.301,0.037 -0.583,0.057 -0.822,0.046 -1.509,-0.066 -1.802,-1.035 -1.856,-1.331 -0.112,-0.609 0.22,-1.3 0.837,-2.038 -0.376,-0.788 -0.723,-1.595 -1.038,-2.417 -1.957,-0.092 -2.316,-1.05 -2.355,-1.614 -0.044,-0.631 0.382,-1.316 1.202,-2.022 -0.358,-1.415 -0.627,-2.86 -0.794,-4.337 -1.946,-0.68 -1.919,-1.597 -1.902,-1.991 0.025,-0.582 0.309,-1.249 1.701,-1.851 m -99.159,8.122 c 2.478,0.109 4.573,-1.812 4.682,-4.29 0.109,-2.477 -1.812,-4.572 -4.29,-4.681 -2.478,-0.108 -4.573,1.811 -4.682,4.29 -0.108,2.477 1.812,4.572 4.29,4.681 m -32.273,-3.465 c 0.02,0.623 0.055,1.237 0.109,1.848 4.712,-0.017 10.411,-0.566 16.479,-1.587 -0.01,-0.135 -0.03,-0.265 -0.037,-0.402 -7.111,-0.305 -12.55,-0.178 -16.551,0.141 m 0.214,-4.873 c 3.958,0.668 9.362,1.27 16.474,1.586 0.02,-0.133 0.051,-0.264 0.073,-0.397 -5.956,-1.546 -11.587,-2.592 -16.278,-3.02 -0.107,0.604 -0.196,1.216 -0.269,1.831 m 1.852,-7.599 c 3.67,1.757 8.773,3.76 15.539,5.717 0.049,-0.127 0.104,-0.249 0.157,-0.373 -6.174,-3.306 -11.157,-5.589 -14.986,-7.071 -0.253,0.568 -0.49,1.143 -0.71,1.727 m 3.018,-6.012 c 3.28,2.321 7.894,5.212 14.169,8.584 0.075,-0.11 0.147,-0.225 0.223,-0.333 -5.244,-4.449 -9.769,-7.646 -13.342,-9.792 -0.366,0.501 -0.714,1.019 -1.05,1.541 m 4.971,-6.029 c 2.544,3.171 6.271,7.186 11.511,11.881 0.098,-0.094 0.199,-0.184 0.299,-0.274 -4.195,-5.75 -7.685,-9.925 -10.43,-12.854 -0.472,0.402 -0.931,0.818 -1.38,1.247 m 5.317,-4.124 c 1.947,3.512 4.849,8.117 9.039,13.878 0.117,-0.07 0.236,-0.13 0.353,-0.195 -2.862,-6.438 -5.545,-11.222 -7.786,-14.618 -0.544,0.297 -1.08,0.608 -1.606,0.935 m 7.093,-3.296 c 0.916,3.966 2.531,9.208 5.223,15.721 0.128,-0.04 0.254,-0.085 0.385,-0.122 -1.287,-7.013 -2.622,-12.292 -3.826,-16.124 -0.6,0.157 -1.194,0.333 -1.782,0.525 m 6.583,-1.401 c 0.229,4.011 0.846,9.421 2.122,16.435 0.135,-0.012 0.267,-0.032 0.404,-0.039 0.211,-7.035 -0.131,-12.503 -0.676,-16.534 -0.62,0.029 -1.238,0.073 -1.85,0.138 m 3.934,20.578 c -6.47,-0.284 -11.967,4.752 -12.25,11.221 -0.283,6.473 4.753,11.969 11.223,12.251 6.472,0.283 11.968,-4.751 12.251,-11.223 0.283,-6.471 -4.753,-11.966 -11.224,-12.249 m 1.77,-4.042 c 0.134,0.018 0.264,0.049 0.398,0.074 1.884,-6.876 2.969,-12.212 3.549,-16.189 -0.603,-0.117 -1.216,-0.213 -1.832,-0.298 -0.894,3.968 -1.712,9.385 -2.115,16.413 m 3.434,0.907 c 0.126,0.048 0.249,0.102 0.374,0.154 3.249,-6.253 5.316,-11.334 6.576,-15.204 -0.57,-0.241 -1.146,-0.471 -1.732,-0.679 -1.533,3.713 -3.324,8.856 -5.218,15.729 m 3.175,1.663 c 0.112,0.075 0.226,0.147 0.336,0.226 4.676,-5.373 7.969,-9.706 10.216,-13.037 -0.498,-0.371 -1.004,-0.729 -1.523,-1.075 -2.523,3.189 -5.613,7.719 -9.029,13.886 m 2.711,2.294 c 0.091,0.099 0.182,0.197 0.273,0.299 5.631,-4.22 9.692,-7.894 12.505,-10.831 -0.409,-0.464 -0.831,-0.921 -1.266,-1.361 -2.99,2.678 -6.832,6.531 -11.512,11.893 m 2.146,2.87 c 0.066,0.115 0.128,0.235 0.191,0.352 6.547,-2.813 11.394,-5.289 14.865,-7.314 -0.288,-0.55 -0.591,-1.094 -0.909,-1.627 -3.749,1.825 -8.535,4.615 -14.147,8.589 m 1.436,3.243 c 0.043,0.129 0.085,0.254 0.123,0.385 6.91,-1.357 12.17,-2.908 15.978,-4.337 -0.167,-0.601 -0.354,-1.195 -0.555,-1.782 -3.946,1.141 -9.109,2.98 -15.546,5.734 m 0.695,3.519 c 0.011,0.135 0.031,0.266 0.038,0.402 7.113,0.307 12.549,0.178 16.551,-0.142 -0.02,-0.62 -0.056,-1.235 -0.109,-1.847 -4.712,0.017 -10.412,0.567 -16.48,1.587 m 16.375,5.135 c -3.957,-0.668 -9.362,-1.27 -16.475,-1.587 -0.019,0.135 -0.05,0.264 -0.072,0.396 5.956,1.547 11.586,2.593 16.278,3.021 0.106,-0.604 0.196,-1.213 0.269,-1.83 m -1.852,7.599 c -3.669,-1.756 -8.772,-3.761 -15.539,-5.717 -0.049,0.124 -0.103,0.247 -0.155,0.372 6.172,3.306 11.154,5.588 14.985,7.071 0.251,-0.568 0.489,-1.142 0.709,-1.726 m -3.018,6.011 c -3.279,-2.322 -7.894,-5.21 -14.168,-8.584 -0.075,0.112 -0.146,0.224 -0.223,0.335 5.244,4.446 9.768,7.646 13.342,9.792 0.365,-0.504 0.713,-1.019 1.049,-1.543 m -4.972,6.03 c -2.544,-3.172 -6.269,-7.187 -11.51,-11.88 -0.098,0.092 -0.198,0.182 -0.297,0.272 4.194,5.752 7.683,9.926 10.428,12.853 0.473,-0.4 0.931,-0.818 1.379,-1.245 m -5.316,4.124 c -1.946,-3.513 -4.849,-8.118 -9.038,-13.877 -0.116,0.067 -0.237,0.127 -0.354,0.194 2.861,6.437 5.544,11.221 7.785,14.618 0.545,-0.296 1.08,-0.61 1.607,-0.935 m -7.094,3.296 c -0.915,-3.966 -2.531,-9.207 -5.221,-15.721 -0.129,0.039 -0.256,0.083 -0.385,0.121 1.287,7.013 2.622,12.292 3.826,16.125 0.6,-0.158 1.194,-0.334 1.78,-0.525 m -6.582,1.4 c -0.23,-4.011 -0.846,-9.419 -2.122,-16.436 -0.135,0.012 -0.267,0.033 -0.403,0.041 -0.212,7.034 0.13,12.504 0.674,16.532 0.621,-0.028 1.24,-0.073 1.851,-0.137 m -5.703,-16.534 c -0.135,-0.02 -0.265,-0.053 -0.398,-0.076 -1.884,6.878 -2.972,12.212 -3.549,16.188 0.603,0.117 1.215,0.215 1.831,0.298 0.894,-3.966 1.713,-9.382 2.116,-16.41 m -3.435,-0.907 c -0.127,-0.051 -0.248,-0.105 -0.372,-0.156 -3.25,6.255 -5.318,11.336 -6.575,15.205 0.567,0.241 1.143,0.47 1.729,0.68 1.533,-3.714 3.325,-8.857 5.218,-15.729 m -3.175,-1.664 c -0.111,-0.076 -0.227,-0.147 -0.336,-0.225 -4.676,5.372 -7.97,9.704 -10.216,13.035 0.497,0.372 1.005,0.73 1.524,1.076 2.523,-3.189 5.612,-7.721 9.028,-13.886 m -2.71,-2.295 c -0.093,-0.098 -0.184,-0.196 -0.273,-0.296 -5.632,4.216 -9.694,7.89 -12.505,10.829 0.409,0.465 0.83,0.92 1.265,1.361 2.99,-2.678 6.831,-6.532 11.513,-11.894 m -2.146,-2.871 c -0.067,-0.114 -0.128,-0.232 -0.193,-0.35 -6.546,2.812 -11.394,5.286 -14.864,7.313 0.288,0.551 0.591,1.095 0.909,1.627 3.749,-1.826 8.535,-4.616 14.148,-8.59 m -1.437,-3.242 c -0.041,-0.129 -0.085,-0.257 -0.123,-0.385 -6.911,1.357 -12.169,2.91 -15.98,4.337 0.17,0.602 0.355,1.195 0.558,1.783 3.944,-1.142 9.107,-2.979 15.545,-5.735 m -28.788,-10.856 c 0.055,-1.245 1.027,-2.096 2.935,-2.566 0.356,-1.702 0.816,-3.364 1.37,-4.982 -1.06,-1.056 -1.602,-2.067 -1.458,-2.983 0.101,-0.64 0.638,-2.116 3.449,-1.993 0.024,10e-4 0.054,0.008 0.078,0.009 0.426,-0.863 0.88,-1.707 1.361,-2.531 -0.799,-1.114 -1.168,-2.129 -0.934,-2.983 0.113,-0.412 0.647,-1.751 2.752,-1.661 l 0.001,10e-4 c 0.342,0.014 0.749,0.083 1.187,0.181 1.054,-1.37 2.185,-2.678 3.396,-3.902 -0.431,-1.201 -0.531,-2.176 -0.254,-2.869 0.359,-0.895 1.21,-1.426 2.225,-1.381 h 0.001 c 0.568,0.025 1.254,0.266 2.036,0.692 0.759,-0.594 1.534,-1.17 2.333,-1.712 -0.201,-1.104 -0.177,-2.028 0.167,-2.672 0.409,-0.764 1.177,-1.197 2.053,-1.158 h 0.002 c 0.699,0.031 1.516,0.419 2.419,1.109 1.526,-0.77 3.104,-1.447 4.727,-2.029 0.103,-0.977 0.318,-1.765 0.676,-2.285 0.465,-0.67 1.169,-1.035 1.933,-1.001 0.882,0.039 1.736,0.7 2.552,1.801 0.937,-0.205 1.888,-0.374 2.849,-0.513 0.232,-0.858 0.529,-1.52 0.903,-1.948 0.486,-0.558 1.127,-0.849 1.805,-0.82 h 0.011 c 0.524,0.022 1.583,0.091 2.686,2.328 0.842,-0.013 1.69,-0.009 2.545,0.028 0.876,0.039 1.741,0.113 2.602,0.203 0.862,-1.371 1.807,-2.135 2.823,-2.091 h 0.003 c 0.678,0.028 1.291,0.373 1.726,0.971 0.335,0.457 0.573,1.145 0.73,2.021 0.944,0.224 1.876,0.475 2.793,0.76 0.909,-1.025 1.815,-1.61 2.699,-1.571 h 0.002 c 0.763,0.034 1.432,0.458 1.836,1.166 0.313,0.549 0.457,1.353 0.476,2.335 1.565,0.721 3.078,1.537 4.531,2.437 0.961,-0.611 1.807,-0.928 2.507,-0.897 0.877,0.039 1.605,0.537 1.946,1.332 0.287,0.671 0.23,1.594 -0.067,2.68 0.748,0.61 1.47,1.249 2.174,1.908 0.817,-0.355 1.521,-0.536 2.09,-0.51 1.015,0.044 1.818,0.645 2.096,1.567 0.216,0.716 0.033,1.681 -0.502,2.838 1.099,1.328 2.109,2.727 3.04,4.184 0.446,-0.059 0.856,-0.092 1.2,-0.078 2.106,0.093 2.521,1.471 2.597,1.894 0.159,0.87 -0.297,1.85 -1.193,2.89 0.408,0.864 0.785,1.745 1.133,2.637 0.026,0.002 0.055,0 0.08,10e-4 h 0.001 c 2.813,0.123 3.218,1.639 3.263,2.284 0.064,0.928 -0.564,1.887 -1.714,2.848 0.409,1.658 0.724,3.352 0.928,5.078 1.875,0.628 2.278,1.377 2.456,1.719 0.369,0.712 0.33,1.513 -0.111,2.205 -0.371,0.581 -1.095,1.066 -2.056,1.477 -0.005,0.479 -0.007,0.958 -0.027,1.44 -0.021,0.477 -0.062,0.944 -0.097,1.413 1.526,0.813 2.223,1.73 2.176,2.812 -0.055,1.245 -1.028,2.094 -2.936,2.566 -0.356,1.703 -0.816,3.364 -1.37,4.982 1.06,1.055 1.601,2.067 1.456,2.985 -0.1,0.638 -0.638,2.113 -3.446,1.991 -0.026,-0.002 -0.055,-0.008 -0.081,-0.01 -0.425,0.864 -0.877,1.706 -1.359,2.532 0.8,1.114 1.168,2.129 0.934,2.983 -0.113,0.413 -0.647,1.752 -2.751,1.66 -0.343,-0.016 -0.75,-0.085 -1.188,-0.182 -1.055,1.369 -2.185,2.676 -3.396,3.902 0.431,1.2 0.53,2.177 0.254,2.87 -0.358,0.895 -1.211,1.424 -2.226,1.38 -0.567,-0.025 -1.254,-0.267 -2.036,-0.693 -0.76,0.595 -1.535,1.17 -2.334,1.712 0.2,1.106 0.177,2.031 -0.168,2.674 -0.409,0.762 -1.177,1.195 -2.054,1.157 -0.699,-0.031 -1.515,-0.419 -2.418,-1.111 -1.527,0.77 -3.104,1.448 -4.728,2.03 -0.104,0.978 -0.318,1.765 -0.678,2.285 -0.463,0.67 -1.167,1.036 -1.93,1.003 -0.883,-0.039 -1.737,-0.702 -2.552,-1.803 -0.939,0.205 -1.89,0.374 -2.85,0.513 -0.231,0.859 -0.53,1.521 -0.902,1.949 -0.486,0.558 -1.127,0.848 -1.807,0.818 -1.016,-0.044 -1.891,-0.889 -2.631,-2.33 -0.864,0.016 -1.733,0.013 -2.61,-0.025 -0.876,-0.039 -1.743,-0.112 -2.602,-0.204 -0.862,1.373 -1.807,2.138 -2.825,2.092 -0.678,-0.029 -1.291,-0.376 -1.727,-0.972 -0.334,-0.458 -0.573,-1.145 -0.73,-2.02 -0.945,-0.223 -1.877,-0.475 -2.794,-0.761 -0.907,1.027 -1.816,1.613 -2.698,1.574 -0.764,-0.035 -1.434,-0.46 -1.837,-1.169 -0.312,-0.548 -0.457,-1.351 -0.475,-2.333 -1.567,-0.723 -3.08,-1.537 -4.533,-2.437 -0.96,0.611 -1.807,0.926 -2.506,0.895 -0.877,-0.038 -1.605,-0.535 -1.946,-1.332 -0.288,-0.67 -0.231,-1.593 0.066,-2.678 -0.749,-0.61 -1.471,-1.251 -2.174,-1.908 -0.817,0.355 -1.522,0.535 -2.091,0.51 -1.013,-0.044 -1.817,-0.645 -2.095,-1.569 -0.216,-0.715 -0.031,-1.679 0.503,-2.836 -1.099,-1.327 -2.11,-2.728 -3.041,-4.183 -0.447,0.058 -0.858,0.092 -1.201,0.078 -2.105,-0.092 -2.521,-1.474 -2.598,-1.894 -0.158,-0.872 0.299,-1.852 1.195,-2.893 -0.408,-0.864 -0.786,-1.744 -1.134,-2.638 -0.025,-0.001 -0.056,0.003 -0.08,0.003 -2.812,-0.123 -3.218,-1.641 -3.264,-2.285 -0.063,-0.927 0.565,-1.887 1.715,-2.848 -0.41,-1.659 -0.722,-3.353 -0.929,-5.08 -1.862,-0.635 -2.757,-1.568 -2.702,-2.815 0.047,-1.081 0.822,-1.935 2.414,-2.61 0.005,-0.471 0.006,-0.941 0.027,-1.415 0.022,-0.498 0.063,-0.989 0.103,-1.481 -1.403,-0.77 -2.227,-1.675 -2.181,-2.742" />
      <path
         inkscape:connector-curvature="0"
         id="path36304"
         style="fill:#ee982c;fill-opacity:1;fill-rule:nonzero;stroke:none"
         d="m 359.09,338.552 c -0.873,3.945 10.871,20.499 10.871,20.499 5.738,0.408 11.691,0.132 17.983,-1.229 l 3.292,-8.1 c -5.447,2.556 -20.639,3.813 -32.146,-11.17" />
      <path
         inkscape:connector-curvature="0"
         id="path36306"
         style="fill:#ee982c;fill-opacity:1;fill-rule:nonzero;stroke:none"
         d="m 324.217,305.617 -15.488,-0.05 c 0,0 -1.143,18.182 -5.942,23.83 4.455,0.195 20.389,0.022 20.389,0.022 z" />
    </g>
  </g>
</svg>
